<mxfile host="app.diagrams.net" modified="2024-05-30T08:15:12.737Z" agent="Mozilla/5.0 (Windows NT 10.0; Win64; x64) AppleWebKit/537.36 (KHTML, like Gecko) Chrome/123.0.0.0 Safari/537.36 OPR/109.0.0.0" etag="7O3i_p6be1g_sPHuOpbg" version="24.4.10" type="github">
  <diagram name="Page-1" id="Fbr115JwTer1HfNoCMGv">
    <mxGraphModel dx="753" dy="480" grid="1" gridSize="10" guides="1" tooltips="1" connect="1" arrows="1" fold="1" page="1" pageScale="1" pageWidth="827" pageHeight="1169" math="0" shadow="0">
      <root>
        <mxCell id="0" />
        <mxCell id="1" parent="0" />
        <mxCell id="5tYfxTz4HMq13MGqvYjH-4" style="edgeStyle=none;rounded=0;orthogonalLoop=1;jettySize=auto;html=1;exitX=0.75;exitY=1;exitDx=0;exitDy=0;entryX=0.5;entryY=0;entryDx=0;entryDy=0;" edge="1" parent="1" source="5tYfxTz4HMq13MGqvYjH-1" target="5tYfxTz4HMq13MGqvYjH-3">
          <mxGeometry relative="1" as="geometry" />
        </mxCell>
        <mxCell id="5tYfxTz4HMq13MGqvYjH-5" style="edgeStyle=none;rounded=0;orthogonalLoop=1;jettySize=auto;html=1;exitX=0.25;exitY=1;exitDx=0;exitDy=0;entryX=0.5;entryY=0;entryDx=0;entryDy=0;" edge="1" parent="1" source="5tYfxTz4HMq13MGqvYjH-1" target="5tYfxTz4HMq13MGqvYjH-2">
          <mxGeometry relative="1" as="geometry" />
        </mxCell>
        <mxCell id="5tYfxTz4HMq13MGqvYjH-1" value="movement" style="rounded=0;whiteSpace=wrap;html=1;" vertex="1" parent="1">
          <mxGeometry x="330" y="220" width="120" height="60" as="geometry" />
        </mxCell>
        <mxCell id="5tYfxTz4HMq13MGqvYjH-9" value="" style="edgeStyle=none;rounded=0;orthogonalLoop=1;jettySize=auto;html=1;" edge="1" parent="1" source="5tYfxTz4HMq13MGqvYjH-2" target="5tYfxTz4HMq13MGqvYjH-6">
          <mxGeometry relative="1" as="geometry" />
        </mxCell>
        <mxCell id="5tYfxTz4HMq13MGqvYjH-2" value="is w down" style="rounded=0;whiteSpace=wrap;html=1;" vertex="1" parent="1">
          <mxGeometry x="220" y="340" width="120" height="60" as="geometry" />
        </mxCell>
        <mxCell id="5tYfxTz4HMq13MGqvYjH-8" value="" style="edgeStyle=none;rounded=0;orthogonalLoop=1;jettySize=auto;html=1;" edge="1" parent="1" source="5tYfxTz4HMq13MGqvYjH-3" target="5tYfxTz4HMq13MGqvYjH-7">
          <mxGeometry relative="1" as="geometry" />
        </mxCell>
        <mxCell id="5tYfxTz4HMq13MGqvYjH-3" value="is s down" style="rounded=0;whiteSpace=wrap;html=1;" vertex="1" parent="1">
          <mxGeometry x="440" y="350" width="120" height="50" as="geometry" />
        </mxCell>
        <mxCell id="5tYfxTz4HMq13MGqvYjH-6" value="move forward" style="rounded=0;whiteSpace=wrap;html=1;" vertex="1" parent="1">
          <mxGeometry x="220" y="450" width="120" height="60" as="geometry" />
        </mxCell>
        <mxCell id="5tYfxTz4HMq13MGqvYjH-7" value="move backwards" style="rounded=0;whiteSpace=wrap;html=1;" vertex="1" parent="1">
          <mxGeometry x="440" y="450" width="120" height="60" as="geometry" />
        </mxCell>
      </root>
    </mxGraphModel>
  </diagram>
</mxfile>
